<svg xmlns="http://www.w3.org/2000/svg" viewBox="0 0 51.46 32.93"><defs><style>.cls-1{fill:#f34a38;}</style></defs><title>icon-google</title><g id="Layer_2" data-name="Layer 2"><g id="Layer_1-2" data-name="Layer 1"><path class="cls-1" d="M18.05,19.86h8a10.22,10.22,0,1,1-2.78-11,1.11,1.11,0,0,0,1.51,0l3-2.78a1.1,1.1,0,0,0,0-1.6A16.4,16.4,0,0,0,16.79,0,16.46,16.46,0,1,0,32.9,17.39c0-.11,0-3.78,0-3.78H18.05a1.1,1.1,0,0,0-1.1,1.1v4a1.1,1.1,0,0,0,1.1,1.1Zm0,0"/><path class="cls-1" d="M46.54,14V10a1,1,0,0,0-1-1H42.25a1,1,0,0,0-1,1v4H37.34a1,1,0,0,0-1,1v3.32a1,1,0,0,0,1,1h3.95v3.95a1,1,0,0,0,1,1h3.32a1,1,0,0,0,1-1V19.24h4a1,1,0,0,0,1-1V14.94a1,1,0,0,0-1-1Z"/><path class="cls-1" d="M46.54,14"/></g></g></svg>