<svg xmlns="http://www.w3.org/2000/svg" xmlns:xlink="http://www.w3.org/1999/xlink" viewBox="0 0 9.82 9.14"><defs><style>.cls-1{fill:none;}.cls-2{clip-path:url(#clip-path);}.cls-3{fill:#296e9e;}</style><clipPath id="clip-path" transform="translate(0)"><rect class="cls-1" width="10" height="9.26"/></clipPath></defs><title>icon-email</title><g id="Layer_2" data-name="Layer 2"><g id="Layer_1-2" data-name="Layer 1"><g class="cls-2"><path class="cls-3" d="M.4,3.51A.62.62,0,0,0,.25,4.59L2.26,6,9.38.44,3.08,6.64l2.74,2a.69.69,0,0,0,1.05-.32L9.8.3A.22.22,0,0,0,9.52,0Zm0,0" transform="translate(0)"/></g><path class="cls-3" d="M1.78,6.53l0,.09.39,2.12a.48.48,0,0,0,.73.32,13.36,13.36,0,0,0,1.23-.84Zm0,0" transform="translate(0)"/></g></g></svg>