<svg xmlns="http://www.w3.org/2000/svg" viewBox="0 0 33.13 27.47"><defs><style>.cls-1{fill:#3fa9f5;}</style></defs><title>icon-twitter</title><g id="Layer_2" data-name="Layer 2"><g id="Layer_1-2" data-name="Layer 1"><path class="cls-1" d="M.64,22c1.4-.17,2.82,0,4.22-.22a9.54,9.54,0,0,0,2-.6,23.15,23.15,0,0,1-4.32-3.56.79.79,0,0,1,.56-1.34,6.65,6.65,0,0,0,1.66-.13,22.26,22.26,0,0,1-3.27-5.72.79.79,0,0,1,1-1,5.26,5.26,0,0,0,.95.28,12,12,0,0,1-.64-7.33.79.79,0,0,1,1.31-.35C7.2,5.18,11.17,6.67,15.42,7.38a7,7,0,0,1,4.4-7A6.26,6.26,0,0,1,26.59,2a10.07,10.07,0,0,1,3.54-1A.73.73,0,0,1,30.94,2c-.41.68-.8,1.41-1.22,2.11a16.7,16.7,0,0,1,2.66-.53.77.77,0,0,1,.54,1.3c-1,.83-2.08,1.79-3.19,2.55,0,7.38-2.19,13.57-8.78,17.77C15.44,28.73,5.23,28.14.45,23.37h0A.49.49,0,0,1,.09,23a.53.53,0,0,1,.19-.75A.56.56,0,0,1,.64,22Z"/></g></g></svg>